<svg width="608" height="122" viewBox="0 0 608 122" fill="none" xmlns="http://www.w3.org/2000/svg">
<path d="M13.7676 0.0571594H1.18555V71.3829H13.7676V49.9231L25.2702 40.1885H66.2547V71.3829H76.285L76.629 29.0643H38.0472L74.0241 0.0571594H56.1339L13.7676 35.8194V0.0571594Z" fill="black"/>
<path d="M145.524 0.0571594V29.0643H97.5553V0.0571594H84.9732V71.3829H97.5553V40.1903H145.524V71.3829H158.107V0.0571594H145.524Z" fill="black"/>
<path d="M202.955 0.0571594L166.978 71.3829H180.445L189.39 53.5018H230.381L239.326 71.3829H252.694L216.816 0.0571594H202.955ZM209.934 12.5739L224.876 42.3758H194.993L209.934 12.5739Z" fill="black"/>
<path d="M274.044 43.7665H301.666L318.868 71.3829H333.219L314.936 42.6738C325.061 39.9916 331.45 32.9385 331.45 21.9118C331.45 7.50762 320.834 0.0571594 305.401 0.0571594H261.462V71.3829H274.044V43.7665ZM274.044 32.8392V10.9845H304.713C313.756 10.9845 319.064 14.8587 319.064 21.9118C319.064 28.8656 313.756 32.8392 304.713 32.8392H274.044Z" fill="black"/>
<path d="M391.423 71.3829L418.651 11.5805V71.3829H430.938V0.0571594H411.869L386.508 55.8859L361.147 0.0571594H341.684V71.3829H353.971V11.5805L381.2 71.3829H391.423Z" fill="black"/>
<path d="M500.731 0.0571594V29.0643H452.761V0.0571594H440.179V71.3829H452.761V40.1903H500.731V71.3829H513.313V0.0571594H500.731Z" fill="black"/>
<path d="M557.715 0.0571594L521.738 71.3829H535.205L544.15 53.5018H585.141L594.086 71.3829H607.454L571.575 0.0571594H557.715ZM564.695 12.5739L579.636 42.3758H549.753L564.695 12.5739Z" fill="black"/>
<path d="M0.828125 111.936L3.22911 109.858C6.03027 115.705 12.3884 118.363 18.5243 118.363C25.3716 118.363 30.3069 115.512 30.3069 111.018C30.3069 106.331 26.8388 105.461 17.1015 104.398C8.60911 103.528 2.82895 102.271 2.82895 95.651C2.82895 89.8522 8.52018 85.648 16.6124 85.648C24.3045 85.648 29.9957 88.9823 32.4411 93.6214L30.0846 95.506C27.9504 91.4468 23.1929 88.5958 16.5235 88.5958C9.85407 88.5958 5.80795 91.5918 5.80795 95.4577C5.80795 99.8068 9.8096 100.532 18.0352 101.402C28.2172 102.513 33.3749 103.914 33.3749 110.728C33.3749 117.203 27.0611 121.311 18.4798 121.311C10.6099 121.311 3.62928 117.88 0.828125 111.936Z" fill="black"/>
<path d="M75.8507 89.079H60.2887V120.828H57.1763V89.079H41.5699V86.1312H75.8507V89.079Z" fill="black"/>
<path d="M103.59 121.263C93.7636 121.263 87.7167 115.464 87.7167 104.639V86.1312H90.8291V104.494C90.8291 113.627 95.6311 118.218 103.59 118.218C111.549 118.218 116.351 113.627 116.351 104.494V86.1312H119.463V104.639C119.463 115.464 113.416 121.263 103.59 121.263Z" fill="black"/>
<path d="M134.236 120.828V86.1312H149.709C160.202 86.1312 167.405 92.8966 167.405 103.479C167.405 114.062 160.202 120.828 149.709 120.828H134.236ZM137.303 117.88H149.709C158.468 117.88 164.248 112.129 164.248 103.479C164.248 94.7812 158.468 89.079 149.664 89.079H137.303V117.88Z" fill="black"/>
<path d="M184.06 86.1312V120.828H180.947V86.1312H184.06Z" fill="black"/>
<path d="M216.012 85.648C226.594 85.648 234.42 92.9932 234.42 103.479C234.42 113.966 226.594 121.311 216.012 121.311C205.43 121.311 197.605 113.966 197.605 103.479C197.605 92.9932 205.43 85.648 216.012 85.648ZM216.012 88.6924C207.12 88.6924 200.762 94.6845 200.762 103.479C200.762 112.274 207.12 118.266 216.012 118.266C224.949 118.266 231.263 112.274 231.263 103.479C231.263 94.6845 224.949 88.6924 216.012 88.6924Z" fill="black"/>
<path d="M242.533 111.936L244.934 109.858C247.735 115.705 254.094 118.363 260.229 118.363C267.077 118.363 272.012 115.512 272.012 111.018C272.012 106.331 268.544 105.461 258.807 104.398C250.314 103.528 244.534 102.271 244.534 95.651C244.534 89.8522 250.225 85.648 258.318 85.648C266.01 85.648 271.701 88.9823 274.146 93.6214L271.79 95.506C269.656 91.4468 264.898 88.5958 258.229 88.5958C251.559 88.5958 247.513 91.5918 247.513 95.4577C247.513 99.8068 251.515 100.532 259.74 101.402C269.922 102.513 275.08 103.914 275.08 110.728C275.08 117.203 268.766 121.311 260.185 121.311C252.315 121.311 245.334 117.88 242.533 111.936Z" fill="black"/>
</svg>
